<mxfile host="app.diagrams.net" modified="2023-04-11T04:54:18.729Z" agent="Mozilla/5.0 (Windows NT 10.0; Win64; x64; rv:109.0) Gecko/20100101 Firefox/111.0" etag="WcwM1UbQFMWV0Us6rz7b" version="21.1.5" type="github">
  <diagram name="Page-1" id="7uAQjVxMx1izldEQ9lPp">
    <mxGraphModel dx="2924" dy="2234" grid="1" gridSize="10" guides="1" tooltips="1" connect="1" arrows="1" fold="1" page="1" pageScale="1" pageWidth="850" pageHeight="1100" math="0" shadow="0">
      <root>
        <mxCell id="0" />
        <mxCell id="1" parent="0" />
        <mxCell id="P_Tg_UY8Zfl9CV7cMsq9-1" value="Scenario 1" style="swimlane;fontStyle=0;childLayout=stackLayout;horizontal=1;startSize=30;horizontalStack=0;resizeParent=1;resizeParentMax=0;resizeLast=0;collapsible=1;marginBottom=0;whiteSpace=wrap;html=1;" parent="1" vertex="1">
          <mxGeometry y="-50" width="550" height="210" as="geometry" />
        </mxCell>
        <mxCell id="P_Tg_UY8Zfl9CV7cMsq9-2" value="In Agile, there is a sprint 0 to list out all activities" style="text;strokeColor=none;fillColor=none;align=left;verticalAlign=middle;spacingLeft=4;spacingRight=4;overflow=hidden;points=[[0,0.5],[1,0.5]];portConstraint=eastwest;rotatable=0;whiteSpace=wrap;html=1;" parent="P_Tg_UY8Zfl9CV7cMsq9-1" vertex="1">
          <mxGeometry y="30" width="550" height="30" as="geometry" />
        </mxCell>
        <mxCell id="P_Tg_UY8Zfl9CV7cMsq9-162" value="Put all necessary actions &amp;amp; requirements into backlog&amp;nbsp; " style="text;strokeColor=none;fillColor=none;align=left;verticalAlign=middle;spacingLeft=4;spacingRight=4;overflow=hidden;points=[[0,0.5],[1,0.5]];portConstraint=eastwest;rotatable=0;whiteSpace=wrap;html=1;" parent="P_Tg_UY8Zfl9CV7cMsq9-1" vertex="1">
          <mxGeometry y="60" width="550" height="30" as="geometry" />
        </mxCell>
        <mxCell id="P_Tg_UY8Zfl9CV7cMsq9-163" value="Clear product owner&#39;s requirements" style="text;strokeColor=none;fillColor=none;align=left;verticalAlign=middle;spacingLeft=4;spacingRight=4;overflow=hidden;points=[[0,0.5],[1,0.5]];portConstraint=eastwest;rotatable=0;whiteSpace=wrap;html=1;" parent="P_Tg_UY8Zfl9CV7cMsq9-1" vertex="1">
          <mxGeometry y="90" width="550" height="30" as="geometry" />
        </mxCell>
        <mxCell id="P_Tg_UY8Zfl9CV7cMsq9-4" value="List out all optional mandatory fields(first name, last name, email, phone(not the same format for all markets)...NRIC)" style="text;strokeColor=none;fillColor=none;align=left;verticalAlign=middle;spacingLeft=4;spacingRight=4;overflow=hidden;points=[[0,0.5],[1,0.5]];portConstraint=eastwest;rotatable=0;whiteSpace=wrap;html=1;" parent="P_Tg_UY8Zfl9CV7cMsq9-1" vertex="1">
          <mxGeometry y="120" width="550" height="30" as="geometry" />
        </mxCell>
        <mxCell id="P_Tg_UY8Zfl9CV7cMsq9-5" value="For card team review purpose, where is the data stored in (existing or new table)" style="text;strokeColor=none;fillColor=none;align=left;verticalAlign=middle;spacingLeft=4;spacingRight=4;overflow=hidden;points=[[0,0.5],[1,0.5]];portConstraint=eastwest;rotatable=0;whiteSpace=wrap;html=1;" parent="P_Tg_UY8Zfl9CV7cMsq9-1" vertex="1">
          <mxGeometry y="150" width="550" height="30" as="geometry" />
        </mxCell>
        <mxCell id="P_Tg_UY8Zfl9CV7cMsq9-161" value="To integration with CRM salesforce, Need to get all info such as (api endpoint, token...)" style="text;strokeColor=none;fillColor=none;align=left;verticalAlign=middle;spacingLeft=4;spacingRight=4;overflow=hidden;points=[[0,0.5],[1,0.5]];portConstraint=eastwest;rotatable=0;whiteSpace=wrap;html=1;" parent="P_Tg_UY8Zfl9CV7cMsq9-1" vertex="1">
          <mxGeometry y="180" width="550" height="30" as="geometry" />
        </mxCell>
        <mxCell id="P_Tg_UY8Zfl9CV7cMsq9-68" value="Table" style="shape=table;startSize=30;container=1;collapsible=0;childLayout=tableLayout;strokeColor=default;fontSize=16;" parent="1" vertex="1">
          <mxGeometry x="-270" y="620" width="1460" height="110" as="geometry" />
        </mxCell>
        <mxCell id="P_Tg_UY8Zfl9CV7cMsq9-69" value="" style="shape=tableRow;horizontal=0;startSize=0;swimlaneHead=0;swimlaneBody=0;strokeColor=inherit;top=0;left=0;bottom=0;right=0;collapsible=0;dropTarget=0;fillColor=none;points=[[0,0.5],[1,0.5]];portConstraint=eastwest;fontSize=16;" parent="P_Tg_UY8Zfl9CV7cMsq9-68" vertex="1">
          <mxGeometry y="30" width="1460" height="29" as="geometry" />
        </mxCell>
        <mxCell id="P_Tg_UY8Zfl9CV7cMsq9-70" value="ID" style="shape=partialRectangle;html=1;whiteSpace=wrap;connectable=0;strokeColor=inherit;overflow=hidden;fillColor=none;top=0;left=0;bottom=0;right=0;pointerEvents=1;fontSize=16;" parent="P_Tg_UY8Zfl9CV7cMsq9-69" vertex="1">
          <mxGeometry width="97" height="29" as="geometry">
            <mxRectangle width="97" height="29" as="alternateBounds" />
          </mxGeometry>
        </mxCell>
        <mxCell id="P_Tg_UY8Zfl9CV7cMsq9-71" value="Form Name" style="shape=partialRectangle;html=1;whiteSpace=wrap;connectable=0;strokeColor=inherit;overflow=hidden;fillColor=none;top=0;left=0;bottom=0;right=0;pointerEvents=1;fontSize=16;" parent="P_Tg_UY8Zfl9CV7cMsq9-69" vertex="1">
          <mxGeometry x="97" width="108" height="29" as="geometry">
            <mxRectangle width="108" height="29" as="alternateBounds" />
          </mxGeometry>
        </mxCell>
        <mxCell id="P_Tg_UY8Zfl9CV7cMsq9-72" value="Form Data" style="shape=partialRectangle;html=1;whiteSpace=wrap;connectable=0;strokeColor=inherit;overflow=hidden;fillColor=none;top=0;left=0;bottom=0;right=0;pointerEvents=1;fontSize=16;" parent="P_Tg_UY8Zfl9CV7cMsq9-69" vertex="1">
          <mxGeometry x="205" width="345" height="29" as="geometry">
            <mxRectangle width="345" height="29" as="alternateBounds" />
          </mxGeometry>
        </mxCell>
        <mxCell id="P_Tg_UY8Zfl9CV7cMsq9-81" value="Unique Identifier" style="shape=partialRectangle;html=1;whiteSpace=wrap;connectable=0;strokeColor=inherit;overflow=hidden;fillColor=none;top=0;left=0;bottom=0;right=0;pointerEvents=1;fontSize=16;" parent="P_Tg_UY8Zfl9CV7cMsq9-69" vertex="1">
          <mxGeometry x="550" width="296" height="29" as="geometry">
            <mxRectangle width="296" height="29" as="alternateBounds" />
          </mxGeometry>
        </mxCell>
        <mxCell id="P_Tg_UY8Zfl9CV7cMsq9-84" value="Status" style="shape=partialRectangle;html=1;whiteSpace=wrap;connectable=0;strokeColor=inherit;overflow=hidden;fillColor=none;top=0;left=0;bottom=0;right=0;pointerEvents=1;fontSize=16;" parent="P_Tg_UY8Zfl9CV7cMsq9-69" vertex="1">
          <mxGeometry x="846" width="241" height="29" as="geometry">
            <mxRectangle width="241" height="29" as="alternateBounds" />
          </mxGeometry>
        </mxCell>
        <mxCell id="P_Tg_UY8Zfl9CV7cMsq9-87" value="Date Created" style="shape=partialRectangle;html=1;whiteSpace=wrap;connectable=0;strokeColor=inherit;overflow=hidden;fillColor=none;top=0;left=0;bottom=0;right=0;pointerEvents=1;fontSize=16;" parent="P_Tg_UY8Zfl9CV7cMsq9-69" vertex="1">
          <mxGeometry x="1087" width="188" height="29" as="geometry">
            <mxRectangle width="188" height="29" as="alternateBounds" />
          </mxGeometry>
        </mxCell>
        <mxCell id="P_Tg_UY8Zfl9CV7cMsq9-113" value="Market" style="shape=partialRectangle;html=1;whiteSpace=wrap;connectable=0;strokeColor=inherit;overflow=hidden;fillColor=none;top=0;left=0;bottom=0;right=0;pointerEvents=1;fontSize=16;" parent="P_Tg_UY8Zfl9CV7cMsq9-69" vertex="1">
          <mxGeometry x="1275" width="185" height="29" as="geometry">
            <mxRectangle width="185" height="29" as="alternateBounds" />
          </mxGeometry>
        </mxCell>
        <mxCell id="P_Tg_UY8Zfl9CV7cMsq9-73" value="" style="shape=tableRow;horizontal=0;startSize=0;swimlaneHead=0;swimlaneBody=0;strokeColor=inherit;top=0;left=0;bottom=0;right=0;collapsible=0;dropTarget=0;fillColor=none;points=[[0,0.5],[1,0.5]];portConstraint=eastwest;fontSize=16;" parent="P_Tg_UY8Zfl9CV7cMsq9-68" vertex="1">
          <mxGeometry y="59" width="1460" height="51" as="geometry" />
        </mxCell>
        <mxCell id="P_Tg_UY8Zfl9CV7cMsq9-74" value="1" style="shape=partialRectangle;html=1;whiteSpace=wrap;connectable=0;strokeColor=inherit;overflow=hidden;fillColor=none;top=0;left=0;bottom=0;right=0;pointerEvents=1;fontSize=16;" parent="P_Tg_UY8Zfl9CV7cMsq9-73" vertex="1">
          <mxGeometry width="97" height="51" as="geometry">
            <mxRectangle width="97" height="51" as="alternateBounds" />
          </mxGeometry>
        </mxCell>
        <mxCell id="P_Tg_UY8Zfl9CV7cMsq9-75" value="Card Sign up" style="shape=partialRectangle;html=1;whiteSpace=wrap;connectable=0;strokeColor=inherit;overflow=hidden;fillColor=none;top=0;left=0;bottom=0;right=0;pointerEvents=1;fontSize=16;" parent="P_Tg_UY8Zfl9CV7cMsq9-73" vertex="1">
          <mxGeometry x="97" width="108" height="51" as="geometry">
            <mxRectangle width="108" height="51" as="alternateBounds" />
          </mxGeometry>
        </mxCell>
        <mxCell id="P_Tg_UY8Zfl9CV7cMsq9-76" value="firstname=David&amp;amp;lastname=Test&amp;amp;email=test@test.com&amp;amp;phone=90001919" style="shape=partialRectangle;html=1;whiteSpace=wrap;connectable=0;strokeColor=inherit;overflow=hidden;fillColor=none;top=0;left=0;bottom=0;right=0;pointerEvents=1;fontSize=16;" parent="P_Tg_UY8Zfl9CV7cMsq9-73" vertex="1">
          <mxGeometry x="205" width="345" height="51" as="geometry">
            <mxRectangle width="345" height="51" as="alternateBounds" />
          </mxGeometry>
        </mxCell>
        <mxCell id="P_Tg_UY8Zfl9CV7cMsq9-82" value="email=test@test.com|phone=90001919" style="shape=partialRectangle;html=1;whiteSpace=wrap;connectable=0;strokeColor=inherit;overflow=hidden;fillColor=none;top=0;left=0;bottom=0;right=0;pointerEvents=1;fontSize=16;" parent="P_Tg_UY8Zfl9CV7cMsq9-73" vertex="1">
          <mxGeometry x="550" width="296" height="51" as="geometry">
            <mxRectangle width="296" height="51" as="alternateBounds" />
          </mxGeometry>
        </mxCell>
        <mxCell id="P_Tg_UY8Zfl9CV7cMsq9-85" value="New|Pending|Approved|Rejected" style="shape=partialRectangle;html=1;whiteSpace=wrap;connectable=0;strokeColor=inherit;overflow=hidden;fillColor=none;top=0;left=0;bottom=0;right=0;pointerEvents=1;fontSize=16;" parent="P_Tg_UY8Zfl9CV7cMsq9-73" vertex="1">
          <mxGeometry x="846" width="241" height="51" as="geometry">
            <mxRectangle width="241" height="51" as="alternateBounds" />
          </mxGeometry>
        </mxCell>
        <mxCell id="P_Tg_UY8Zfl9CV7cMsq9-88" value="11.04.2023 13.11.11.190" style="shape=partialRectangle;html=1;whiteSpace=wrap;connectable=0;strokeColor=inherit;overflow=hidden;fillColor=none;top=0;left=0;bottom=0;right=0;pointerEvents=1;fontSize=16;" parent="P_Tg_UY8Zfl9CV7cMsq9-73" vertex="1">
          <mxGeometry x="1087" width="188" height="51" as="geometry">
            <mxRectangle width="188" height="51" as="alternateBounds" />
          </mxGeometry>
        </mxCell>
        <mxCell id="P_Tg_UY8Zfl9CV7cMsq9-114" value="SG|VN|US" style="shape=partialRectangle;html=1;whiteSpace=wrap;connectable=0;strokeColor=inherit;overflow=hidden;fillColor=none;top=0;left=0;bottom=0;right=0;pointerEvents=1;fontSize=16;" parent="P_Tg_UY8Zfl9CV7cMsq9-73" vertex="1">
          <mxGeometry x="1275" width="185" height="51" as="geometry">
            <mxRectangle width="185" height="51" as="alternateBounds" />
          </mxGeometry>
        </mxCell>
        <mxCell id="P_Tg_UY8Zfl9CV7cMsq9-94" value="Fields, unique Identifier, promotion, quota Validation" style="rhombus;whiteSpace=wrap;html=1;" parent="1" vertex="1">
          <mxGeometry x="-30" y="245" width="260" height="140" as="geometry" />
        </mxCell>
        <mxCell id="P_Tg_UY8Zfl9CV7cMsq9-95" value="" style="endArrow=classic;html=1;rounded=0;" parent="1" edge="1">
          <mxGeometry width="50" height="50" relative="1" as="geometry">
            <mxPoint x="-245" y="315" as="sourcePoint" />
            <mxPoint x="-35" y="315" as="targetPoint" />
          </mxGeometry>
        </mxCell>
        <mxCell id="P_Tg_UY8Zfl9CV7cMsq9-96" value="Submit form data" style="text;html=1;align=center;verticalAlign=middle;resizable=0;points=[];autosize=1;strokeColor=none;fillColor=none;" parent="1" vertex="1">
          <mxGeometry x="-200" y="315" width="120" height="30" as="geometry" />
        </mxCell>
        <mxCell id="P_Tg_UY8Zfl9CV7cMsq9-99" value="Database" style="shape=cylinder3;whiteSpace=wrap;html=1;boundedLbl=1;backgroundOutline=1;size=15;" parent="1" vertex="1">
          <mxGeometry x="420" y="265" width="85" height="100" as="geometry" />
        </mxCell>
        <mxCell id="P_Tg_UY8Zfl9CV7cMsq9-102" value="" style="edgeStyle=elbowEdgeStyle;elbow=vertical;endArrow=classic;html=1;curved=0;rounded=0;endSize=8;startSize=8;" parent="1" edge="1">
          <mxGeometry width="50" height="50" relative="1" as="geometry">
            <mxPoint x="100" y="390" as="sourcePoint" />
            <mxPoint x="-260" y="380" as="targetPoint" />
            <Array as="points">
              <mxPoint y="480" />
            </Array>
          </mxGeometry>
        </mxCell>
        <mxCell id="P_Tg_UY8Zfl9CV7cMsq9-103" value="Fail" style="text;html=1;align=center;verticalAlign=middle;resizable=0;points=[];autosize=1;strokeColor=none;fillColor=none;" parent="1" vertex="1">
          <mxGeometry x="50" y="420" width="40" height="30" as="geometry" />
        </mxCell>
        <mxCell id="P_Tg_UY8Zfl9CV7cMsq9-105" value="Pass" style="text;html=1;align=center;verticalAlign=middle;resizable=0;points=[];autosize=1;strokeColor=none;fillColor=none;" parent="1" vertex="1">
          <mxGeometry x="260" y="280" width="50" height="30" as="geometry" />
        </mxCell>
        <mxCell id="P_Tg_UY8Zfl9CV7cMsq9-107" value="CRM salesforce" style="ellipse;shape=cloud;whiteSpace=wrap;html=1;" parent="1" vertex="1">
          <mxGeometry x="410" y="470" width="160" height="80" as="geometry" />
        </mxCell>
        <mxCell id="P_Tg_UY8Zfl9CV7cMsq9-108" value="Asynchronous" style="text;html=1;align=center;verticalAlign=middle;resizable=0;points=[];autosize=1;strokeColor=none;fillColor=none;" parent="1" vertex="1">
          <mxGeometry x="190" y="380" width="100" height="30" as="geometry" />
        </mxCell>
        <mxCell id="P_Tg_UY8Zfl9CV7cMsq9-109" value="For the form, using content fragment and experience fragment to create the form (able to create multiple variants)" style="text;html=1;align=center;verticalAlign=middle;resizable=0;points=[];autosize=1;strokeColor=none;fillColor=none;" parent="1" vertex="1">
          <mxGeometry x="-280" y="730" width="640" height="30" as="geometry" />
        </mxCell>
        <mxCell id="P_Tg_UY8Zfl9CV7cMsq9-110" value="Each of the field, able to set a dynamic regex validation, required fields, id, name..." style="text;html=1;align=center;verticalAlign=middle;resizable=0;points=[];autosize=1;strokeColor=none;fillColor=none;" parent="1" vertex="1">
          <mxGeometry x="-280" y="770" width="470" height="30" as="geometry" />
        </mxCell>
        <mxCell id="P_Tg_UY8Zfl9CV7cMsq9-111" value="Create a table that allows to store dynamic form data" style="text;html=1;align=center;verticalAlign=middle;resizable=0;points=[];autosize=1;strokeColor=none;fillColor=none;" parent="1" vertex="1">
          <mxGeometry x="-280" y="570" width="310" height="30" as="geometry" />
        </mxCell>
        <mxCell id="P_Tg_UY8Zfl9CV7cMsq9-112" value="Create a stepper container component if there is multiple steps to validate the form data" style="text;html=1;align=center;verticalAlign=middle;resizable=0;points=[];autosize=1;strokeColor=none;fillColor=none;" parent="1" vertex="1">
          <mxGeometry x="-280" y="810" width="500" height="30" as="geometry" />
        </mxCell>
        <mxCell id="P_Tg_UY8Zfl9CV7cMsq9-115" value="Scenario 2" style="swimlane;fontStyle=0;childLayout=stackLayout;horizontal=1;startSize=30;horizontalStack=0;resizeParent=1;resizeParentMax=0;resizeLast=0;collapsible=1;marginBottom=0;whiteSpace=wrap;html=1;" parent="1" vertex="1">
          <mxGeometry x="10" y="870" width="550" height="90" as="geometry" />
        </mxCell>
        <mxCell id="P_Tg_UY8Zfl9CV7cMsq9-116" value="Where can we get the list of promotion code?" style="text;strokeColor=none;fillColor=none;align=left;verticalAlign=middle;spacingLeft=4;spacingRight=4;overflow=hidden;points=[[0,0.5],[1,0.5]];portConstraint=eastwest;rotatable=0;whiteSpace=wrap;html=1;" parent="P_Tg_UY8Zfl9CV7cMsq9-115" vertex="1">
          <mxGeometry y="30" width="550" height="30" as="geometry" />
        </mxCell>
        <mxCell id="P_Tg_UY8Zfl9CV7cMsq9-117" value="how many promotion code records for a specific form?" style="text;strokeColor=none;fillColor=none;align=left;verticalAlign=middle;spacingLeft=4;spacingRight=4;overflow=hidden;points=[[0,0.5],[1,0.5]];portConstraint=eastwest;rotatable=0;whiteSpace=wrap;html=1;" parent="P_Tg_UY8Zfl9CV7cMsq9-115" vertex="1">
          <mxGeometry y="60" width="550" height="30" as="geometry" />
        </mxCell>
        <mxCell id="P_Tg_UY8Zfl9CV7cMsq9-119" value="If promotion code list is from author, and managed by uploading csv file - &amp;gt; Create a workflow to convert csv data to an JSON node value (reduce time when do validation instead of reading the original resource ) -&amp;gt; create an API to validate the promotion code by comparing it to the JSON value node " style="text;html=1;align=center;verticalAlign=middle;resizable=0;points=[];autosize=1;strokeColor=none;fillColor=none;" parent="1" vertex="1">
          <mxGeometry x="-270" y="970" width="1640" height="30" as="geometry" />
        </mxCell>
        <mxCell id="P_Tg_UY8Zfl9CV7cMsq9-120" value="If the promotion code list is hug, must saved them to database. By using SQL query. the time can be reduced " style="text;html=1;align=center;verticalAlign=middle;resizable=0;points=[];autosize=1;strokeColor=none;fillColor=none;" parent="1" vertex="1">
          <mxGeometry x="-265" y="1010" width="610" height="30" as="geometry" />
        </mxCell>
        <mxCell id="P_Tg_UY8Zfl9CV7cMsq9-121" value="If the promotion code list is from card team or third party, create a admin page to let authors allow to sync (create a batch job to sync data if needed)" style="text;html=1;align=center;verticalAlign=middle;resizable=0;points=[];autosize=1;strokeColor=none;fillColor=none;" parent="1" vertex="1">
          <mxGeometry x="-270" y="1050" width="820" height="30" as="geometry" />
        </mxCell>
        <mxCell id="P_Tg_UY8Zfl9CV7cMsq9-122" value="Scenario 3" style="swimlane;fontStyle=0;childLayout=stackLayout;horizontal=1;startSize=30;horizontalStack=0;resizeParent=1;resizeParentMax=0;resizeLast=0;collapsible=1;marginBottom=0;whiteSpace=wrap;html=1;" parent="1" vertex="1">
          <mxGeometry x="-260" y="1160" width="930" height="240" as="geometry" />
        </mxCell>
        <mxCell id="P_Tg_UY8Zfl9CV7cMsq9-123" value="Each of environments will have different endpoints (SIT, UAT, prod)" style="text;strokeColor=none;fillColor=none;align=left;verticalAlign=middle;spacingLeft=4;spacingRight=4;overflow=hidden;points=[[0,0.5],[1,0.5]];portConstraint=eastwest;rotatable=0;whiteSpace=wrap;html=1;" parent="P_Tg_UY8Zfl9CV7cMsq9-122" vertex="1">
          <mxGeometry y="30" width="930" height="30" as="geometry" />
        </mxCell>
        <mxCell id="P_Tg_UY8Zfl9CV7cMsq9-124" value="Define root cause by checking on the log (log is our friend)" style="text;strokeColor=none;fillColor=none;align=left;verticalAlign=middle;spacingLeft=4;spacingRight=4;overflow=hidden;points=[[0,0.5],[1,0.5]];portConstraint=eastwest;rotatable=0;whiteSpace=wrap;html=1;" parent="P_Tg_UY8Zfl9CV7cMsq9-122" vertex="1">
          <mxGeometry y="60" width="930" height="30" as="geometry" />
        </mxCell>
        <mxCell id="P_Tg_UY8Zfl9CV7cMsq9-125" value="Make sure the sales force API endpoint is available (saving leads, opportunies)" style="text;strokeColor=none;fillColor=none;align=left;verticalAlign=middle;spacingLeft=4;spacingRight=4;overflow=hidden;points=[[0,0.5],[1,0.5]];portConstraint=eastwest;rotatable=0;whiteSpace=wrap;html=1;" parent="P_Tg_UY8Zfl9CV7cMsq9-122" vertex="1">
          <mxGeometry y="90" width="930" height="30" as="geometry" />
        </mxCell>
        <mxCell id="P_Tg_UY8Zfl9CV7cMsq9-126" value="From AEM side, able to get success CRM response or any exceptions? (not found, request time out, token is invalid...)" style="text;strokeColor=none;fillColor=none;align=left;verticalAlign=middle;spacingLeft=4;spacingRight=4;overflow=hidden;points=[[0,0.5],[1,0.5]];portConstraint=eastwest;rotatable=0;whiteSpace=wrap;html=1;" parent="P_Tg_UY8Zfl9CV7cMsq9-122" vertex="1">
          <mxGeometry y="120" width="930" height="30" as="geometry" />
        </mxCell>
        <mxCell id="P_Tg_UY8Zfl9CV7cMsq9-127" value="&lt;div&gt;Besides sending body data to CRM, normally create a request header attribute such as request reference number: RRN-11-04-2023-13.11-11-190&lt;/div&gt;" style="text;strokeColor=none;fillColor=none;align=left;verticalAlign=middle;spacingLeft=4;spacingRight=4;overflow=hidden;points=[[0,0.5],[1,0.5]];portConstraint=eastwest;rotatable=0;whiteSpace=wrap;html=1;" parent="P_Tg_UY8Zfl9CV7cMsq9-122" vertex="1">
          <mxGeometry y="150" width="930" height="30" as="geometry" />
        </mxCell>
        <mxCell id="P_Tg_UY8Zfl9CV7cMsq9-128" value="&lt;div&gt;From CRM Salesforce, check on log whether able to find the request reference number able or not&lt;br&gt;&lt;/div&gt;" style="text;strokeColor=none;fillColor=none;align=left;verticalAlign=middle;spacingLeft=4;spacingRight=4;overflow=hidden;points=[[0,0.5],[1,0.5]];portConstraint=eastwest;rotatable=0;whiteSpace=wrap;html=1;" parent="P_Tg_UY8Zfl9CV7cMsq9-122" vertex="1">
          <mxGeometry y="180" width="930" height="30" as="geometry" />
        </mxCell>
        <mxCell id="P_Tg_UY8Zfl9CV7cMsq9-129" value="If able to find the number able on the log, the code to save opportunities, leads is not working on CRM" style="text;strokeColor=none;fillColor=none;align=left;verticalAlign=middle;spacingLeft=4;spacingRight=4;overflow=hidden;points=[[0,0.5],[1,0.5]];portConstraint=eastwest;rotatable=0;whiteSpace=wrap;html=1;" parent="P_Tg_UY8Zfl9CV7cMsq9-122" vertex="1">
          <mxGeometry y="210" width="930" height="30" as="geometry" />
        </mxCell>
        <mxCell id="P_Tg_UY8Zfl9CV7cMsq9-130" value="If there is available API promotion checking from card team or third party, need to get info such as request payload, response " style="text;html=1;align=center;verticalAlign=middle;resizable=0;points=[];autosize=1;strokeColor=none;fillColor=none;" parent="1" vertex="1">
          <mxGeometry x="-270" y="1085" width="700" height="30" as="geometry" />
        </mxCell>
        <mxCell id="P_Tg_UY8Zfl9CV7cMsq9-131" value="PO, Card Team managemnt" style="shape=umlActor;verticalLabelPosition=bottom;verticalAlign=top;html=1;outlineConnect=0;" parent="1" vertex="1">
          <mxGeometry x="940" y="470" width="30" height="60" as="geometry" />
        </mxCell>
        <mxCell id="P_Tg_UY8Zfl9CV7cMsq9-133" value="" style="endArrow=classic;html=1;rounded=0;" parent="1" edge="1">
          <mxGeometry width="50" height="50" relative="1" as="geometry">
            <mxPoint x="954.5" y="455" as="sourcePoint" />
            <mxPoint x="954.5" y="385" as="targetPoint" />
          </mxGeometry>
        </mxCell>
        <mxCell id="P_Tg_UY8Zfl9CV7cMsq9-134" value="" style="endArrow=classic;html=1;rounded=0;entryX=0.063;entryY=0.5;entryDx=0;entryDy=0;entryPerimeter=0;" parent="1" target="P_Tg_UY8Zfl9CV7cMsq9-107" edge="1">
          <mxGeometry width="50" height="50" relative="1" as="geometry">
            <mxPoint x="290" y="510" as="sourcePoint" />
            <mxPoint x="400" y="402" as="targetPoint" />
          </mxGeometry>
        </mxCell>
        <mxCell id="P_Tg_UY8Zfl9CV7cMsq9-135" value="" style="edgeStyle=elbowEdgeStyle;elbow=vertical;endArrow=classic;html=1;curved=0;rounded=0;endSize=8;startSize=8;exitX=0.56;exitY=1.1;exitDx=0;exitDy=0;exitPerimeter=0;" parent="1" source="P_Tg_UY8Zfl9CV7cMsq9-105" edge="1">
          <mxGeometry width="50" height="50" relative="1" as="geometry">
            <mxPoint x="290" y="320" as="sourcePoint" />
            <mxPoint x="-260" y="380" as="targetPoint" />
            <Array as="points">
              <mxPoint x="110" y="530" />
            </Array>
          </mxGeometry>
        </mxCell>
        <mxCell id="P_Tg_UY8Zfl9CV7cMsq9-138" value="Actor" style="shape=umlActor;verticalLabelPosition=bottom;verticalAlign=top;html=1;outlineConnect=0;" parent="1" vertex="1">
          <mxGeometry x="-280" y="285" width="30" height="60" as="geometry" />
        </mxCell>
        <mxCell id="P_Tg_UY8Zfl9CV7cMsq9-139" value="Sending email to inform users" style="text;html=1;align=center;verticalAlign=middle;resizable=0;points=[];autosize=1;strokeColor=none;fillColor=none;" parent="1" vertex="1">
          <mxGeometry x="-25" y="500" width="190" height="30" as="geometry" />
        </mxCell>
        <mxCell id="P_Tg_UY8Zfl9CV7cMsq9-140" value="Return validation errors to form submission" style="text;html=1;align=center;verticalAlign=middle;resizable=0;points=[];autosize=1;strokeColor=none;fillColor=none;" parent="1" vertex="1">
          <mxGeometry x="-260" y="445" width="260" height="30" as="geometry" />
        </mxCell>
        <mxCell id="P_Tg_UY8Zfl9CV7cMsq9-142" value="Review User&#39;s data submission" style="rhombus;whiteSpace=wrap;html=1;" parent="1" vertex="1">
          <mxGeometry x="860" y="265" width="190" height="120" as="geometry" />
        </mxCell>
        <mxCell id="P_Tg_UY8Zfl9CV7cMsq9-144" value="" style="endArrow=classic;html=1;rounded=0;" parent="1" edge="1">
          <mxGeometry width="50" height="50" relative="1" as="geometry">
            <mxPoint x="570" y="510" as="sourcePoint" />
            <mxPoint x="920" y="510" as="targetPoint" />
          </mxGeometry>
        </mxCell>
        <mxCell id="P_Tg_UY8Zfl9CV7cMsq9-145" value="Notify" style="text;html=1;align=center;verticalAlign=middle;resizable=0;points=[];autosize=1;strokeColor=none;fillColor=none;" parent="1" vertex="1">
          <mxGeometry x="585" y="445" width="50" height="30" as="geometry" />
        </mxCell>
        <mxCell id="P_Tg_UY8Zfl9CV7cMsq9-147" value="Generate eCard " style="shape=process;whiteSpace=wrap;html=1;backgroundOutline=1;" parent="1" vertex="1">
          <mxGeometry x="910" y="170" width="120" height="60" as="geometry" />
        </mxCell>
        <mxCell id="P_Tg_UY8Zfl9CV7cMsq9-148" value="" style="edgeStyle=segmentEdgeStyle;endArrow=classic;html=1;curved=0;rounded=0;endSize=8;startSize=8;" parent="1" edge="1">
          <mxGeometry width="50" height="50" relative="1" as="geometry">
            <mxPoint x="900" y="210" as="sourcePoint" />
            <mxPoint x="-260" y="270" as="targetPoint" />
          </mxGeometry>
        </mxCell>
        <mxCell id="P_Tg_UY8Zfl9CV7cMsq9-149" value="Inform users" style="text;html=1;align=center;verticalAlign=middle;resizable=0;points=[];autosize=1;strokeColor=none;fillColor=none;" parent="1" vertex="1">
          <mxGeometry x="-25" y="175" width="90" height="30" as="geometry" />
        </mxCell>
        <mxCell id="P_Tg_UY8Zfl9CV7cMsq9-150" value="" style="endArrow=classic;html=1;rounded=0;exitX=0.5;exitY=0;exitDx=0;exitDy=0;" parent="1" source="P_Tg_UY8Zfl9CV7cMsq9-142" edge="1">
          <mxGeometry width="50" height="50" relative="1" as="geometry">
            <mxPoint x="540" y="370" as="sourcePoint" />
            <mxPoint x="955" y="240" as="targetPoint" />
          </mxGeometry>
        </mxCell>
        <mxCell id="P_Tg_UY8Zfl9CV7cMsq9-151" value="Pass" style="text;html=1;align=center;verticalAlign=middle;resizable=0;points=[];autosize=1;strokeColor=none;fillColor=none;" parent="1" vertex="1">
          <mxGeometry x="965" y="235" width="50" height="30" as="geometry" />
        </mxCell>
        <mxCell id="P_Tg_UY8Zfl9CV7cMsq9-152" value="Fail" style="text;html=1;align=center;verticalAlign=middle;resizable=0;points=[];autosize=1;strokeColor=none;fillColor=none;" parent="1" vertex="1">
          <mxGeometry x="790" y="285" width="40" height="30" as="geometry" />
        </mxCell>
        <mxCell id="P_Tg_UY8Zfl9CV7cMsq9-154" value="" style="edgeStyle=elbowEdgeStyle;elbow=vertical;endArrow=classic;html=1;curved=0;rounded=0;endSize=8;startSize=8;" parent="1" edge="1">
          <mxGeometry width="50" height="50" relative="1" as="geometry">
            <mxPoint x="780" y="320" as="sourcePoint" />
            <mxPoint x="-260" y="240" as="targetPoint" />
            <Array as="points">
              <mxPoint x="290" y="240" />
            </Array>
          </mxGeometry>
        </mxCell>
        <mxCell id="P_Tg_UY8Zfl9CV7cMsq9-156" value="Update Status" style="text;html=1;align=center;verticalAlign=middle;resizable=0;points=[];autosize=1;strokeColor=none;fillColor=none;" parent="1" vertex="1">
          <mxGeometry x="580" y="295" width="100" height="30" as="geometry" />
        </mxCell>
        <mxCell id="P_Tg_UY8Zfl9CV7cMsq9-157" value="" style="endArrow=classic;html=1;rounded=0;" parent="1" edge="1">
          <mxGeometry width="50" height="50" relative="1" as="geometry">
            <mxPoint x="470" y="210" as="sourcePoint" />
            <mxPoint x="470" y="260" as="targetPoint" />
          </mxGeometry>
        </mxCell>
        <mxCell id="P_Tg_UY8Zfl9CV7cMsq9-158" value="Update Status" style="text;html=1;align=center;verticalAlign=middle;resizable=0;points=[];autosize=1;strokeColor=none;fillColor=none;" parent="1" vertex="1">
          <mxGeometry x="440" y="215" width="100" height="30" as="geometry" />
        </mxCell>
        <mxCell id="P_Tg_UY8Zfl9CV7cMsq9-159" value="" style="endArrow=classic;startArrow=classic;html=1;rounded=0;exitX=1;exitY=0.5;exitDx=0;exitDy=0;" parent="1" source="P_Tg_UY8Zfl9CV7cMsq9-94" edge="1">
          <mxGeometry width="50" height="50" relative="1" as="geometry">
            <mxPoint x="250" y="340" as="sourcePoint" />
            <mxPoint x="410" y="315" as="targetPoint" />
          </mxGeometry>
        </mxCell>
        <mxCell id="P_Tg_UY8Zfl9CV7cMsq9-160" value="" style="endArrow=classic;startArrow=classic;html=1;rounded=0;" parent="1" edge="1">
          <mxGeometry width="50" height="50" relative="1" as="geometry">
            <mxPoint x="510" y="320" as="sourcePoint" />
            <mxPoint x="850" y="320" as="targetPoint" />
          </mxGeometry>
        </mxCell>
      </root>
    </mxGraphModel>
  </diagram>
</mxfile>
